<?xml version="1.0" standalone="no"?>
<!DOCTYPE svg PUBLIC "-//W3C//DTD SVG 20010904//EN"
 "http://www.w3.org/TR/2001/REC-SVG-20010904/DTD/svg10.dtd">
<svg version="1.0" xmlns="http://www.w3.org/2000/svg"
 width="205.000000pt" height="128.000000pt" viewBox="0 0 205.000000 128.000000"
 preserveAspectRatio="xMidYMid meet">
<metadata>
Created by potrace 1.16, written by Peter Selinger 2001-2019
</metadata>
<g transform="translate(0.000000,128.000000) scale(0.100000,-0.100000)"
fill="#000000" stroke="none">
<path d="M840 1190 c-184 -14 -429 -66 -587 -125 -135 -51 -158 -89 -150 -238
9 -172 -14 -148 456 -461 456 -303 451 -301 538 -250 133 77 742 471 772 498
49 45 73 106 79 202 6 100 0 124 -40 169 -41 48 -79 65 -228 109 -172 50 -352
84 -511 96 -146 11 -172 11 -329 0z m-139 -267 c15 -15 -4 -69 -22 -64 -8 2
-31 6 -51 9 -51 6 -51 -17 0 -46 64 -36 92 -70 92 -112 0 -56 -26 -82 -88 -88
-31 -3 -64 1 -83 8 -27 12 -30 17 -25 43 8 39 10 41 34 28 12 -6 37 -11 57
-11 32 0 36 3 33 23 -2 15 -19 31 -53 49 -27 14 -55 34 -62 44 -22 30 -16 82
13 111 23 23 31 25 85 21 33 -2 64 -9 70 -15z m133 -83 c22 -105 25 -103 51
23 l16 77 34 0 33 0 23 -97 23 -98 19 85 c10 47 20 91 23 98 2 7 19 12 40 12
33 0 36 -2 30 -22 -3 -13 -20 -85 -38 -160 l-33 -138 -42 0 -42 0 -11 58 c-19
90 -25 92 -45 13 l-17 -72 -41 3 -41 3 -31 126 c-52 205 -51 191 -8 187 l37
-3 20 -95z m446 28 c12 -40 32 -109 46 -154 13 -44 24 -83 24 -87 0 -4 -16 -7
-35 -7 -29 0 -36 4 -41 25 -6 22 -11 25 -55 25 -44 0 -49 -3 -55 -25 -5 -21
-12 -25 -40 -25 -19 0 -34 5 -34 11 0 10 72 263 85 297 2 7 21 12 44 12 l40 0
21 -72z m254 59 c25 -18 13 -83 -12 -71 -10 4 -34 9 -54 12 -56 6 -49 -17 17
-56 62 -37 75 -56 75 -107 0 -55 -35 -85 -99 -85 -28 0 -62 5 -76 12 -22 10
-25 16 -20 37 9 37 20 44 43 32 29 -15 79 -14 85 2 7 19 -3 32 -43 52 -101 50
-122 132 -45 173 28 16 108 15 129 -1z m-436 -391 l54 -33 -62 -36 -62 -37
-59 36 c-33 21 -57 39 -54 42 14 14 102 61 115 61 8 0 39 -14 68 -33z m-140
-111 l52 -30 0 -62 c0 -35 -3 -63 -8 -63 -4 0 -31 16 -60 35 l-52 36 0 60 c0
33 3 59 8 57 4 -1 31 -16 60 -33z m212 -25 l0 -59 -52 -36 c-29 -19 -56 -35
-60 -35 -5 0 -8 28 -8 63 l1 62 52 32 c29 18 55 32 60 33 4 0 7 -27 7 -60z"/>
</g>
</svg>
