<?xml version="1.0" standalone="no"?>
<!DOCTYPE svg PUBLIC "-//W3C//DTD SVG 20010904//EN"
 "http://www.w3.org/TR/2001/REC-SVG-20010904/DTD/svg10.dtd">
<svg version="1.0" xmlns="http://www.w3.org/2000/svg"
 width="512.000000pt" height="512.000000pt" viewBox="0 0 512.000000 512.000000"
 preserveAspectRatio="xMidYMid meet">
<metadata>
Created by potrace 1.16, written by Peter Selinger 2001-2019
</metadata>
<g transform="translate(0.000000,512.000000) scale(0.100000,-0.100000)"
fill="#000000" stroke="none">
<path d="M1240 5093 c0 -23 -8 -32 -41 -47 -24 -11 -51 -35 -67 -59 -25 -38
-27 -48 -30 -178 l-3 -137 -207 -4 c-191 -4 -213 -7 -287 -31 -44 -15 -114
-46 -155 -68 -102 -57 -242 -197 -299 -299 -43 -78 -91 -213 -91 -256 0 -20
-5 -24 -30 -24 l-30 0 0 -1630 0 -1630 30 0 c25 0 30 -4 30 -24 0 -43 48 -178
91 -256 57 -102 197 -242 299 -299 78 -43 213 -91 256 -91 20 0 24 -5 24 -30
l0 -30 1830 0 1830 0 0 30 c0 25 4 30 24 30 43 0 178 48 256 91 102 57 242
197 299 299 43 78 91 213 91 256 0 20 5 24 30 24 28 0 30 2 30 40 0 38 -2 40
-30 40 -18 0 -30 5 -30 13 0 28 -52 86 -95 107 l-45 22 -46 -22 c-67 -33 -93
-79 -110 -197 -18 -120 -50 -190 -118 -259 -63 -63 -140 -101 -231 -114 -96
-13 -3614 -13 -3710 0 -182 26 -319 163 -345 345 -6 44 -10 541 -10 1317 l0
1248 1898 2 1898 3 41 27 c25 16 49 44 63 72 l22 46 -22 46 c-14 28 -38 56
-63 72 l-41 27 -1898 3 -1898 2 0 188 c1 300 22 385 124 488 100 99 190 123
463 124 l161 0 4 -138 c3 -131 4 -141 30 -179 16 -25 44 -49 72 -63 l46 -22
46 22 c28 14 56 38 72 63 26 38 27 48 30 179 l4 138 498 0 498 0 4 -138 c3
-131 4 -141 30 -179 16 -25 44 -49 72 -63 l46 -22 46 22 c28 14 56 38 72 63
26 38 27 48 30 179 l4 138 503 0 503 0 4 -138 c3 -131 4 -141 30 -179 16 -25
44 -49 72 -63 l46 -22 46 22 c28 14 56 38 72 63 26 38 27 48 30 179 l4 138
166 0 c92 0 199 -5 237 -10 182 -26 319 -163 345 -345 6 -43 10 -483 10 -1144
0 -1075 0 -1075 21 -1119 25 -50 86 -95 129 -95 42 0 105 45 126 92 15 33 24
41 47 41 l27 0 0 1100 0 1100 -30 0 c-25 0 -30 4 -30 24 0 43 -48 178 -91 256
-57 102 -197 242 -299 299 -41 22 -111 53 -155 68 -74 25 -95 27 -292 31
l-212 4 -3 137 c-3 130 -5 140 -30 178 -16 24 -43 48 -67 59 -33 15 -41 24
-41 47 0 15 -4 27 -10 27 -5 0 -10 -12 -10 -27 0 -23 -8 -32 -41 -47 -24 -11
-51 -35 -67 -59 -26 -38 -27 -48 -30 -179 l-4 -138 -503 0 -503 0 -4 138 c-3
131 -4 141 -30 179 -16 24 -43 48 -67 59 -33 15 -41 24 -41 47 0 15 -4 27 -10
27 -5 0 -10 -12 -10 -27 0 -23 -8 -32 -41 -47 -24 -11 -51 -35 -67 -59 -26
-38 -27 -48 -30 -179 l-4 -138 -498 0 -498 0 -4 138 c-3 131 -4 141 -30 179
-16 24 -43 48 -67 59 -33 15 -41 24 -41 47 0 15 -4 27 -10 27 -5 0 -10 -12
-10 -27z"/>
<path d="M2620 2772 c-19 -9 -132 -93 -251 -185 -170 -132 -221 -177 -239
-211 l-23 -43 23 -48 c16 -33 37 -56 69 -77 56 -35 74 -32 153 22 48 34 65 40
107 40 l51 0 2 -648 3 -648 27 -41 c16 -25 44 -49 72 -63 l46 -22 46 22 c28
14 56 38 72 63 l27 41 0 846 0 847 -29 41 c-16 23 -46 50 -70 62 -51 24 -44
24 -86 2z"/>
</g>
</svg>
